<svg width="114" height="119" viewBox="0 0 114 119" fill="none" xmlns="http://www.w3.org/2000/svg">
<path d="M40.0833 59.0654C36.3287 59.0654 32.6585 60.1788 29.5366 62.2647C26.4148 64.3507 23.9817 67.3155 22.5449 70.7843C21.108 74.2531 20.7321 78.07 21.4646 81.7524C22.1971 85.4349 24.0051 88.8174 26.66 91.4723C29.3148 94.1272 32.6974 95.9352 36.3798 96.6677C40.0622 97.4001 43.8792 97.0242 47.348 95.5874C50.8168 94.1506 53.7816 91.7174 55.8675 88.5956C57.9534 85.4738 59.0668 81.8035 59.0668 78.0489C59.0668 73.0142 57.0668 68.1857 53.5067 64.6256C49.9466 61.0655 45.118 59.0654 40.0833 59.0654ZM40.0833 84.3768C38.8318 84.3768 37.6084 84.0056 36.5678 83.3103C35.5271 82.615 34.7161 81.6267 34.2372 80.4705C33.7582 79.3142 33.6329 78.0419 33.8771 76.8144C34.1212 75.587 34.7239 74.4594 35.6089 73.5745C36.4938 72.6895 37.6213 72.0869 38.8488 71.8427C40.0763 71.5985 41.3486 71.7238 42.5049 72.2028C43.6611 72.6817 44.6494 73.4928 45.3447 74.5334C46.04 75.574 46.4111 76.7974 46.4111 78.0489C46.4111 79.7272 45.7445 81.3367 44.5578 82.5234C43.3711 83.7101 41.7616 84.3768 40.0833 84.3768ZM107.839 56.6978C108.428 57.2857 108.897 57.9842 109.216 58.7534C109.535 59.5225 109.7 60.3472 109.7 61.18C109.7 62.0128 109.535 62.8375 109.216 63.6066C108.897 64.3758 108.428 65.0743 107.839 65.6622L82.5272 90.9735C81.3385 92.1623 79.7262 92.8301 78.045 92.8301C76.3639 92.8301 74.7516 92.1623 73.5628 90.9735C72.374 89.7848 71.7062 88.1725 71.7062 86.4913C71.7062 84.8102 72.374 83.1979 73.5628 82.0091L98.8741 56.6978C99.462 56.1079 100.161 55.6398 100.93 55.3204C101.699 55.001 102.524 54.8366 103.356 54.8366C104.189 54.8366 105.014 55.001 105.783 55.3204C106.552 55.6398 107.251 56.1079 107.839 56.6978ZM88.8551 46.1514C89.445 46.7393 89.913 47.4378 90.2324 48.207C90.5518 48.9761 90.7162 49.8008 90.7162 50.6336C90.7162 51.4664 90.5518 52.2911 90.2324 53.0602C89.913 53.8294 89.445 54.5279 88.8551 55.1158L78.3087 65.6622C77.1199 66.851 75.5076 67.5188 73.8265 67.5188C72.1453 67.5188 70.533 66.851 69.3443 65.6622C68.1555 64.4734 67.4877 62.8611 67.4877 61.18C67.4877 59.4988 68.1555 57.8865 69.3443 56.6978L79.8906 46.1514C80.4785 45.5615 81.1771 45.0934 81.9462 44.774C82.7154 44.4546 83.54 44.2902 84.3728 44.2902C85.2057 44.2902 86.0303 44.4546 86.7995 44.774C87.5686 45.0934 88.2672 45.5615 88.8551 46.1514ZM112.057 31.9138L103.62 40.3509C102.431 41.5396 100.819 42.2075 99.1378 42.2075C97.4566 42.2075 95.8443 41.5396 94.6556 40.3509C93.4668 39.1621 92.799 37.5498 92.799 35.8687C92.799 34.1875 93.4668 32.5752 94.6556 31.3865L103.093 22.9494C104.281 21.7606 105.894 21.0928 107.575 21.0928C109.256 21.0928 110.868 21.7606 112.057 22.9494C113.246 24.1381 113.914 25.7504 113.914 27.4316C113.914 29.1127 113.246 30.725 112.057 31.9138ZM52.47 39.8236L90.437 1.85659C91.6258 0.667836 93.2381 -2.1695e-08 94.9192 0C96.6004 2.16949e-08 98.2127 0.667836 99.4014 1.85659C100.59 3.04535 101.258 4.65765 101.258 6.33881C101.258 8.01996 100.59 9.63226 99.4014 10.821L61.4345 48.788C60.8458 49.3766 60.1471 49.8435 59.378 50.1621C58.6089 50.4806 57.7847 50.6446 56.9522 50.6446C56.1198 50.6446 55.2955 50.4806 54.5265 50.1621C53.7574 49.8435 53.0586 49.3766 52.47 48.788C51.8814 48.1994 51.4145 47.5006 51.096 46.7315C50.7774 45.9625 50.6134 45.1382 50.6134 44.3058C50.6134 43.4734 50.7774 42.6491 51.096 41.88C51.4145 41.111 51.8814 40.4122 52.47 39.8236ZM68.4109 97.4385C69.0008 98.0263 69.4689 98.7249 69.7883 99.494C70.1077 100.263 70.272 101.088 70.272 101.921C70.272 102.754 70.1077 103.578 69.7883 104.347C69.4689 105.116 69.0008 105.815 68.4109 106.403C64.6884 110.124 60.2696 113.075 55.4066 115.088C50.5437 117.101 45.3318 118.136 40.0687 118.135C34.8056 118.134 29.5942 117.096 24.7322 115.081C19.8702 113.065 15.4527 110.112 11.732 106.39C8.01127 102.667 5.06017 98.2484 3.04719 93.3854C1.03421 88.5225 -0.00122312 83.3107 1.08428e-06 78.0475C0.00122529 72.7844 1.03909 67.5731 3.05433 62.711C5.06957 57.849 8.02272 53.4315 11.7452 49.7108L55.3756 6.07515C56.5643 4.88639 58.1766 4.21855 59.8578 4.21855C61.5389 4.21855 63.1512 4.88639 64.34 6.07515C65.5287 7.2639 66.1966 8.8762 66.1966 10.5574C66.1966 12.2385 65.5287 13.8508 64.34 15.0396L20.6938 58.6594C15.5514 63.8018 12.6624 70.7765 12.6624 78.0489C12.6624 85.3214 15.5514 92.296 20.6938 97.4385C25.8362 102.581 32.8108 105.47 40.0833 105.47C47.3558 105.47 54.3304 102.581 59.4728 97.4385C60.6595 96.2519 62.269 95.5852 63.9471 95.5852C65.6253 95.5852 67.2348 96.2519 68.4214 97.4385H68.4109Z" fill="#004BB4"/>
<mask id="path-2-outside-1_4087_5" maskUnits="userSpaceOnUse" x="16" y="54" width="47" height="48" fill="black">
<rect fill="white" x="16" y="54" width="47" height="48"/>
<path d="M36.4607 94.5759C34.0242 94.5759 31.8092 94.0664 29.8157 93.0475C27.837 92.0286 26.2643 90.5151 25.0977 88.5068C23.9312 86.4985 23.3479 84.0177 23.3479 81.0644C23.3479 78.1849 23.7983 75.5195 24.6991 73.0682C25.5998 70.6022 26.8845 68.4537 28.5532 66.6226C30.2218 64.7768 32.2153 63.3444 34.5336 62.3255C36.8668 61.2918 39.4583 60.775 42.3083 60.775C44.7891 60.775 47.0189 61.2771 48.9976 62.2812C50.9763 63.2853 52.5416 64.7768 53.6934 66.7555C54.86 68.7342 55.4433 71.1929 55.4433 74.1315C55.4433 76.9962 54.9855 79.6689 54.07 82.1497C53.1692 84.6158 51.8771 86.7865 50.1937 88.6618C48.5103 90.5224 46.5094 91.977 44.1911 93.0254C41.8727 94.0591 39.2959 94.5759 36.4607 94.5759ZM37.2581 87.6651C38.8529 87.6651 40.2262 87.259 41.378 86.4468C42.5298 85.6347 43.4749 84.5641 44.2132 83.2351C44.9515 81.9061 45.4979 80.4442 45.8523 78.8494C46.2067 77.2398 46.3839 75.6376 46.3839 74.0428C46.3839 72.4185 46.1624 71.1486 45.7194 70.233C45.2764 69.3027 44.6857 68.6456 43.9474 68.2617C43.2238 67.8778 42.4117 67.6858 41.5109 67.6858C39.9013 67.6858 38.5207 68.0697 37.3689 68.8376C36.2171 69.6055 35.272 70.6317 34.5336 71.9164C33.8101 73.2011 33.2785 74.6335 32.9389 76.2135C32.5992 77.7936 32.4294 79.4031 32.4294 81.0422C32.4294 83.5526 32.8946 85.2877 33.8249 86.2475C34.7552 87.1926 35.8996 87.6651 37.2581 87.6651Z"/>
</mask>
<path d="M36.4607 94.5759C34.0242 94.5759 31.8092 94.0664 29.8157 93.0475C27.837 92.0286 26.2643 90.5151 25.0977 88.5068C23.9312 86.4985 23.3479 84.0177 23.3479 81.0644C23.3479 78.1849 23.7983 75.5195 24.6991 73.0682C25.5998 70.6022 26.8845 68.4537 28.5532 66.6226C30.2218 64.7768 32.2153 63.3444 34.5336 62.3255C36.8668 61.2918 39.4583 60.775 42.3083 60.775C44.7891 60.775 47.0189 61.2771 48.9976 62.2812C50.9763 63.2853 52.5416 64.7768 53.6934 66.7555C54.86 68.7342 55.4433 71.1929 55.4433 74.1315C55.4433 76.9962 54.9855 79.6689 54.07 82.1497C53.1692 84.6158 51.8771 86.7865 50.1937 88.6618C48.5103 90.5224 46.5094 91.977 44.1911 93.0254C41.8727 94.0591 39.2959 94.5759 36.4607 94.5759ZM37.2581 87.6651C38.8529 87.6651 40.2262 87.259 41.378 86.4468C42.5298 85.6347 43.4749 84.5641 44.2132 83.2351C44.9515 81.9061 45.4979 80.4442 45.8523 78.8494C46.2067 77.2398 46.3839 75.6376 46.3839 74.0428C46.3839 72.4185 46.1624 71.1486 45.7194 70.233C45.2764 69.3027 44.6857 68.6456 43.9474 68.2617C43.2238 67.8778 42.4117 67.6858 41.5109 67.6858C39.9013 67.6858 38.5207 68.0697 37.3689 68.8376C36.2171 69.6055 35.272 70.6317 34.5336 71.9164C33.8101 73.2011 33.2785 74.6335 32.9389 76.2135C32.5992 77.7936 32.4294 79.4031 32.4294 81.0422C32.4294 83.5526 32.8946 85.2877 33.8249 86.2475C34.7552 87.1926 35.8996 87.6651 37.2581 87.6651Z" fill="white"/>
<path d="M29.8157 93.0476L26.721 99.0576C26.727 99.0607 26.7331 99.0638 26.7392 99.0669L29.8157 93.0476ZM25.0978 88.5068L30.9431 85.1113H30.9431L25.0978 88.5068ZM24.6991 73.0682L31.0442 75.3999L31.0487 75.3876L24.6991 73.0682ZM28.5532 66.6226L33.5497 71.1759C33.5557 71.1692 33.5618 71.1626 33.5678 71.1559L28.5532 66.6226ZM34.5336 62.3255L37.2535 68.5142C37.2596 68.5115 37.2658 68.5088 37.2719 68.5061L34.5336 62.3255ZM48.9976 62.2812L45.9385 68.3094L45.9385 68.3094L48.9976 62.2812ZM53.6934 66.7555L47.8511 70.1562C47.8574 70.1671 47.8637 70.1779 47.8701 70.1887L53.6934 66.7555ZM54.07 82.1497L47.728 79.8093C47.7254 79.8163 47.7229 79.8234 47.7203 79.8304L54.07 82.1497ZM50.1937 88.6618L55.2065 93.1972C55.2124 93.1907 55.2184 93.1841 55.2243 93.1775L50.1937 88.6618ZM44.1911 93.0254L46.9438 99.1995C46.9548 99.1947 46.9656 99.1898 46.9765 99.1848L44.1911 93.0254ZM41.378 86.4468L37.4824 80.9222L37.4824 80.9222L41.378 86.4468ZM44.2132 83.2351L50.1225 86.518L50.1225 86.518L44.2132 83.2351ZM45.8523 78.8494L52.4513 80.3159L52.4542 80.303L45.8523 78.8494ZM45.7194 70.233L39.6161 73.1394C39.6221 73.1521 39.6282 73.1648 39.6343 73.1774L45.7194 70.233ZM43.9474 68.2617L40.7789 74.2331C40.7954 74.2419 40.812 74.2506 40.8287 74.2593L43.9474 68.2617ZM37.3689 68.8376L41.1186 74.4623L41.1186 74.4623L37.3689 68.8376ZM34.5336 71.9164L28.6726 68.5481C28.6629 68.565 28.6532 68.582 28.6436 68.5991L34.5336 71.9164ZM33.8249 86.2475L28.9707 90.9523C28.9829 90.9648 28.9951 90.9773 29.0073 90.9898L33.8249 86.2475ZM36.4607 94.5759V87.8159C34.9975 87.8159 33.851 87.5182 32.8923 87.0282L29.8157 93.0476L26.7392 99.0669C29.7674 100.615 33.0509 101.336 36.4607 101.336V94.5759ZM29.8157 93.0476L32.9104 87.0375C32.1308 86.6361 31.4909 86.0544 30.9431 85.1113L25.0978 88.5068L19.2524 91.9023C21.0377 94.9757 23.5431 97.4212 26.721 99.0576L29.8157 93.0476ZM25.0978 88.5068L30.9431 85.1113C30.5175 84.3787 30.1079 83.1435 30.1079 81.0644H23.3479H16.5879C16.5879 84.892 17.3448 88.6184 19.2524 91.9023L25.0978 88.5068ZM23.3479 81.0644H30.1079C30.1079 78.899 30.4446 77.0316 31.0442 75.3999L24.6991 73.0682L18.3539 70.7366C17.152 74.0074 16.5879 77.4708 16.5879 81.0644H23.3479ZM24.6991 73.0682L31.0487 75.3876C31.6662 73.6971 32.5079 72.3191 33.5497 71.1759L28.5532 66.6226L23.5566 62.0693C21.2612 64.5882 19.5334 67.5074 18.3494 70.7489L24.6991 73.0682ZM28.5532 66.6226L33.5678 71.1559C34.5853 70.0304 35.7924 69.1564 37.2535 68.5142L34.5336 62.3255L31.8138 56.1368C28.6382 57.5324 25.8583 59.5232 23.5385 62.0893L28.5532 66.6226ZM34.5336 62.3255L37.2719 68.5061C38.647 67.8968 40.291 67.535 42.3083 67.535V60.775V54.015C38.6257 54.015 35.0865 54.6868 31.7954 56.1449L34.5336 62.3255ZM42.3083 60.775V67.535C43.853 67.535 45.0148 67.8407 45.9385 68.3094L48.9976 62.2812L52.0567 56.253C49.0229 54.7134 45.7252 54.015 42.3083 54.015V60.775ZM48.9976 62.2812L45.9385 68.3094C46.7173 68.7046 47.3325 69.2653 47.8511 70.1562L53.6934 66.7555L59.5357 63.3548C57.7507 60.2882 55.2354 57.866 52.0567 56.253L48.9976 62.2812ZM53.6934 66.7555L47.8701 70.1887C48.2746 70.8747 48.6833 72.0691 48.6833 74.1314H55.4433H62.2033C62.2033 70.3167 61.4454 66.5937 59.5167 63.3223L53.6934 66.7555ZM55.4433 74.1314H48.6833C48.6833 76.2642 48.3448 78.138 47.728 79.8093L54.07 82.1497L60.4119 84.4902C61.6261 81.1999 62.2033 77.7282 62.2033 74.1314H55.4433ZM54.07 82.1497L47.7203 79.8304C47.1026 81.5214 46.2469 82.9389 45.1631 84.1462L50.1937 88.6618L55.2243 93.1775C57.5073 90.6341 59.2357 87.7102 60.4196 84.4691L54.07 82.1497ZM50.1937 88.6618L45.1809 84.1265C44.1295 85.2886 42.8901 86.1946 41.4056 86.866L44.1911 93.0254L46.9765 99.1848C50.1288 97.7593 52.8911 95.7563 55.2065 93.1972L50.1937 88.6618ZM44.1911 93.0254L41.4383 86.8513C40.0824 87.4558 38.4587 87.8159 36.4607 87.8159V94.5759V101.336C40.1331 101.336 43.6629 100.662 46.9438 99.1995L44.1911 93.0254ZM37.2581 87.6651V94.4251C40.057 94.4251 42.8352 93.6909 45.2736 91.9715L41.378 86.4468L37.4824 80.9222C37.4962 80.9125 37.5147 80.9013 37.5352 80.8914C37.5556 80.8816 37.5679 80.8778 37.5673 80.878C37.5662 80.8783 37.5443 80.8848 37.4963 80.8914C37.4478 80.898 37.3699 80.9051 37.2581 80.9051V87.6651ZM41.378 86.4468L45.2736 91.9715C47.3209 90.5279 48.9298 88.665 50.1225 86.518L44.2132 83.2351L38.3039 79.9522C38.02 80.4632 37.7387 80.7415 37.4824 80.9222L41.378 86.4468ZM44.2132 83.2351L50.1225 86.518C51.1997 84.5791 51.9662 82.499 52.4513 80.3159L45.8523 78.8494L39.2533 77.3829C39.0296 78.3894 38.7034 79.2331 38.3039 79.9522L44.2132 83.2351ZM45.8523 78.8494L52.4542 80.303C52.9102 78.232 53.1439 76.1426 53.1439 74.0428H46.3839H39.6239C39.6239 75.1327 39.5032 76.2476 39.2504 77.3958L45.8523 78.8494ZM46.3839 74.0428H53.1439C53.1439 71.9412 52.8793 69.5099 51.8045 67.2887L45.7194 70.233L39.6343 73.1774C39.521 72.9433 39.528 72.8601 39.5583 73.0337C39.5876 73.2014 39.6239 73.5248 39.6239 74.0428H46.3839ZM45.7194 70.233L51.8227 67.3267C50.901 65.391 49.3937 63.4745 47.0661 62.2641L43.9474 68.2617L40.8287 74.2593C40.4345 74.0543 40.1299 73.7988 39.9167 73.5616C39.7127 73.3346 39.6286 73.1658 39.6161 73.1394L45.7194 70.233ZM43.9474 68.2617L47.1159 62.2903C45.3219 61.3383 43.4041 60.9258 41.5109 60.9258V67.6858V74.4458C41.4788 74.4458 41.3826 74.4421 41.2406 74.4085C41.0958 74.3743 40.9364 74.3167 40.7789 74.2331L43.9474 68.2617ZM41.5109 67.6858V60.9258C38.7893 60.9258 36.0531 61.5903 33.6191 63.2129L37.3689 68.8376L41.1186 74.4623C41.0785 74.489 41.0536 74.4938 41.0793 74.4866C41.1126 74.4774 41.2441 74.4458 41.5109 74.4458V67.6858ZM37.3689 68.8376L33.6191 63.2129C31.5383 64.6001 29.8936 66.4235 28.6726 68.5481L34.5336 71.9164L40.3947 75.2848C40.6503 74.84 40.8958 74.6108 41.1186 74.4623L37.3689 68.8376ZM34.5336 71.9164L28.6436 68.5991C27.5559 70.5302 26.7987 72.6115 26.3298 74.7929L32.9389 76.2135L39.5479 77.6342C39.7583 76.6555 40.0642 75.8721 40.4237 75.2338L34.5336 71.9164ZM32.9389 76.2135L26.3298 74.7929C25.8884 76.8465 25.6694 78.9324 25.6694 81.0422H32.4294H39.1894C39.1894 79.8739 39.31 78.7407 39.5479 77.6342L32.9389 76.2135ZM32.4294 81.0422H25.6694C25.6694 83.9349 26.1141 88.005 28.9707 90.9523L33.8249 86.2475L38.679 81.5427C39.2431 82.1247 39.3408 82.5994 39.3077 82.4759C39.2954 82.43 39.2638 82.2935 39.2364 82.0434C39.2092 81.7952 39.1894 81.4653 39.1894 81.0422H32.4294ZM33.8249 86.2475L29.0073 90.9898C31.2427 93.2607 34.138 94.4251 37.2581 94.4251V87.6651V80.9051C37.3776 80.9051 37.6386 80.9293 37.9608 81.0624C38.2865 81.1968 38.5163 81.3771 38.6424 81.5052L33.8249 86.2475Z" fill="black" mask="url(#path-2-outside-1_4087_5)"/>
</svg>
