<svg width="104" height="120" viewBox="0 0 104 120" fill="none" xmlns="http://www.w3.org/2000/svg">
<rect x="19" y="17" width="71" height="80" rx="35.5" fill="black"/>
<mask id="path-2-outside-1_4084_2" maskUnits="userSpaceOnUse" x="13.9474" y="12.9474" width="90" height="94" fill="black">
<rect fill="white" x="13.9474" y="12.9474" width="90" height="94"/>
<path d="M52.5553 96.1993C47.2589 96.1993 42.444 95.0918 38.1106 92.877C33.8093 90.6621 30.3908 87.372 27.8549 83.0065C25.3191 78.641 24.0512 73.2483 24.0512 66.8285C24.0512 60.5691 25.0302 54.7752 26.9882 49.4468C28.9463 44.0862 31.7389 39.4158 35.3661 35.4355C38.9933 31.4231 43.3267 28.3094 48.3663 26.0946C53.438 23.8477 59.0714 22.7242 65.2665 22.7242C70.6592 22.7242 75.5062 23.8156 79.8075 25.9983C84.1088 28.181 87.5113 31.4231 90.015 35.7244C92.5509 40.0257 93.8188 45.3702 93.8188 51.7579C93.8188 57.9852 92.8237 63.7951 90.8335 69.1878C88.8755 74.5483 86.0668 79.2669 82.4075 83.3435C78.7482 87.388 74.3988 90.5498 69.3592 92.8288C64.3196 95.0758 58.7183 96.1993 52.5553 96.1993ZM54.2886 81.1768C57.7553 81.1768 60.7405 80.2941 63.2443 78.5286C65.748 76.7632 67.8024 74.436 69.4073 71.5471C71.0123 68.6581 72.2 65.4803 72.9703 62.0136C73.7407 58.5148 74.1259 55.032 74.1259 51.5653C74.1259 48.0344 73.6444 45.2739 72.6815 43.2837C71.7185 41.2615 70.4345 39.8331 68.8295 38.9985C67.2567 38.1639 65.4912 37.7466 63.5332 37.7466C60.0344 37.7466 57.0331 38.5812 54.5294 40.2503C52.0256 41.9195 49.9713 44.1504 48.3663 46.943C46.7934 49.7357 45.6379 52.8493 44.8996 56.2839C44.1613 59.7185 43.7922 63.2173 43.7922 66.7803C43.7922 72.2372 44.8033 76.0089 46.8255 78.0953C48.8478 80.1497 51.3355 81.1768 54.2886 81.1768Z"/>
</mask>
<path d="M52.5553 96.1993C47.2589 96.1993 42.444 95.0918 38.1106 92.877C33.8093 90.6621 30.3908 87.372 27.8549 83.0065C25.3191 78.641 24.0512 73.2483 24.0512 66.8285C24.0512 60.5691 25.0302 54.7752 26.9882 49.4468C28.9463 44.0862 31.7389 39.4158 35.3661 35.4355C38.9933 31.4231 43.3267 28.3094 48.3663 26.0946C53.438 23.8477 59.0714 22.7242 65.2665 22.7242C70.6592 22.7242 75.5062 23.8156 79.8075 25.9983C84.1088 28.181 87.5113 31.4231 90.015 35.7244C92.5509 40.0257 93.8188 45.3702 93.8188 51.7579C93.8188 57.9852 92.8237 63.7951 90.8335 69.1878C88.8755 74.5483 86.0668 79.2669 82.4075 83.3435C78.7482 87.388 74.3988 90.5498 69.3592 92.8288C64.3196 95.0758 58.7183 96.1993 52.5553 96.1993ZM54.2886 81.1768C57.7553 81.1768 60.7405 80.2941 63.2443 78.5286C65.748 76.7632 67.8024 74.436 69.4073 71.5471C71.0123 68.6581 72.2 65.4803 72.9703 62.0136C73.7407 58.5148 74.1259 55.032 74.1259 51.5653C74.1259 48.0344 73.6444 45.2739 72.6815 43.2837C71.7185 41.2615 70.4345 39.8331 68.8295 38.9985C67.2567 38.1639 65.4912 37.7466 63.5332 37.7466C60.0344 37.7466 57.0331 38.5812 54.5294 40.2503C52.0256 41.9195 49.9713 44.1504 48.3663 46.943C46.7934 49.7357 45.6379 52.8493 44.8996 56.2839C44.1613 59.7185 43.7922 63.2173 43.7922 66.7803C43.7922 72.2372 44.8033 76.0089 46.8255 78.0953C48.8478 80.1497 51.3355 81.1768 54.2886 81.1768Z" fill="white"/>
<path d="M38.1106 92.877L33.6417 101.556C33.6505 101.56 33.6592 101.565 33.668 101.569L38.1106 92.877ZM27.8549 83.0065L36.2958 78.1033L36.2958 78.1033L27.8549 83.0065ZM26.9882 49.4468L36.1508 52.8138C36.153 52.8078 36.1552 52.8019 36.1574 52.796L26.9882 49.4468ZM35.3661 35.4355L42.5813 42.0106C42.59 42.0009 42.5988 41.9913 42.6075 41.9817L35.3661 35.4355ZM48.3663 26.0946L52.2939 35.0313C52.3027 35.0274 52.3116 35.0235 52.3204 35.0196L48.3663 26.0946ZM79.8075 25.9983L75.39 34.7033L75.39 34.7033L79.8075 25.9983ZM90.015 35.7244L81.5785 40.6351C81.5876 40.6508 81.5968 40.6664 81.606 40.6819L90.015 35.7244ZM90.8335 69.1878L81.6756 65.8081C81.6719 65.8182 81.6681 65.8284 81.6644 65.8386L90.8335 69.1878ZM82.4075 83.3435L89.6461 89.8928C89.6547 89.8833 89.6633 89.8738 89.6718 89.8642L82.4075 83.3435ZM69.3592 92.8288L73.3343 101.744C73.3501 101.737 73.3658 101.73 73.3815 101.723L69.3592 92.8288ZM63.2443 78.5286L57.6189 70.5508L57.6189 70.5509L63.2443 78.5286ZM69.4073 71.5471L77.9406 76.2878L77.9406 76.2877L69.4073 71.5471ZM72.9703 62.0136L82.4996 64.1312C82.5009 64.125 82.5023 64.1189 82.5037 64.1127L72.9703 62.0136ZM72.6815 43.2837L63.868 47.4806C63.8768 47.4989 63.8856 47.5172 63.8944 47.5355L72.6815 43.2837ZM68.8295 38.9985L64.2541 47.6214C64.278 47.6341 64.302 47.6467 64.326 47.6592L68.8295 38.9985ZM54.5294 40.2503L59.9441 48.3725L59.9442 48.3725L54.5294 40.2503ZM48.3663 46.943L39.9028 42.079C39.8887 42.1035 39.8748 42.128 39.8609 42.1526L48.3663 46.943ZM46.8255 78.0953L39.816 84.8892C39.8336 84.9073 39.8512 84.9253 39.8689 84.9433L46.8255 78.0953ZM52.5553 96.1993V86.4376C48.6644 86.4376 45.3925 85.636 42.5533 84.1849L38.1106 92.877L33.668 101.569C39.4956 104.548 45.8534 105.961 52.5553 105.961V96.1993ZM38.1106 92.877L42.5795 84.1983C40.0098 82.8751 37.9382 80.9306 36.2958 78.1033L27.8549 83.0065L19.414 87.9097C22.8433 93.8133 27.6088 98.4492 33.6417 101.556L38.1106 92.877ZM27.8549 83.0065L36.2958 78.1033C34.83 75.5799 33.8128 71.9859 33.8128 66.8285H24.0512H14.2895C14.2895 74.5108 15.8082 81.7021 19.414 87.9097L27.8549 83.0065ZM24.0512 66.8285H33.8128C33.8128 61.6004 34.6277 56.9588 36.1508 52.8138L26.9882 49.4468L17.8256 46.0798C15.4327 52.5917 14.2895 59.5379 14.2895 66.8285H24.0512ZM26.9882 49.4468L36.1574 52.796C37.7064 48.5553 39.8592 44.9976 42.5813 42.0106L35.3661 35.4355L28.151 28.8604C23.6186 33.8339 20.1862 39.6171 17.8191 46.0976L26.9882 49.4468ZM35.3661 35.4355L42.6075 41.9817C45.2944 39.0094 48.4922 36.7021 52.2939 35.0313L48.3663 26.0946L44.4387 17.1579C38.1613 19.9168 32.6923 23.8367 28.1248 28.8893L35.3661 35.4355ZM48.3663 26.0946L52.3204 35.0196C56.0087 33.3855 60.2737 32.4858 65.2665 32.4858V22.7242V12.9625C57.8691 12.9625 50.8672 14.3098 44.4122 17.1696L48.3663 26.0946ZM65.2665 22.7242V32.4858C69.3074 32.4858 72.6123 33.2936 75.39 34.7033L79.8075 25.9983L84.2249 17.2933C78.4001 14.3375 72.011 12.9625 65.2665 12.9625V22.7242ZM79.8075 25.9983L75.39 34.7033C77.9586 36.0067 79.9892 37.9047 81.5785 40.6351L90.015 35.7244L98.4515 30.8136C95.0334 24.9414 90.2589 20.3554 84.2249 17.2933L79.8075 25.9983ZM90.015 35.7244L81.606 40.6819C83.0413 43.1166 84.0571 46.6354 84.0571 51.7579H93.8188H103.58C103.58 44.1049 102.06 36.9347 98.4241 30.7668L90.015 35.7244ZM93.8188 51.7579H84.0571C84.0571 56.9281 83.2344 61.5843 81.6756 65.8081L90.8335 69.1878L99.9915 72.5675C102.413 66.0059 103.58 59.0422 103.58 51.7579H93.8188ZM90.8335 69.1878L81.6644 65.8386C80.1152 70.0799 77.9366 73.7109 75.1432 76.8228L82.4075 83.3435L89.6718 89.8642C94.197 84.823 97.6358 79.0168 100.003 72.537L90.8335 69.1878ZM82.4075 83.3435L75.1689 76.7943C72.4222 79.8302 69.1723 82.1999 65.3369 83.9344L69.3592 92.8288L73.3815 101.723C79.6252 98.8997 85.0743 94.9459 89.6461 89.8928L82.4075 83.3435ZM69.3592 92.8288L65.3841 83.9132C61.7344 85.5404 57.5093 86.4376 52.5553 86.4376V96.1993V105.961C59.9273 105.961 66.9048 104.611 73.3343 101.744L69.3592 92.8288ZM54.2886 81.1768V90.9385C59.4941 90.9385 64.5081 89.5819 68.8697 86.5064L63.2443 78.5286L57.6189 70.5509C56.973 71.0063 56.0166 71.4152 54.2886 71.4152V81.1768ZM63.2443 78.5286L68.8697 86.5064C72.6666 83.8291 75.6794 80.3578 77.9406 76.2878L69.4073 71.5471L60.8741 66.8064C59.9253 68.5142 58.8294 69.6973 57.6189 70.5508L63.2443 78.5286ZM69.4073 71.5471L77.9406 76.2877C80.0348 72.518 81.5404 68.4475 82.4996 64.1312L72.9703 62.0136L63.4411 59.896C62.8595 62.5132 61.9897 64.7982 60.8741 66.8064L69.4073 71.5471ZM72.9703 62.0136L82.5037 64.1127C83.4207 59.9475 83.8876 55.7611 83.8876 51.5653H74.1259H64.3643C64.3643 54.3029 64.0607 57.082 63.437 59.9145L72.9703 62.0136ZM74.1259 51.5653H83.8876C83.8876 47.3452 83.3438 42.9076 81.4685 39.0319L72.6815 43.2837L63.8944 47.5355C63.8924 47.5314 64.0238 47.8101 64.1483 48.524C64.2714 49.2296 64.3643 50.2245 64.3643 51.5653H74.1259ZM72.6815 43.2837L81.4949 39.0869C79.8406 35.6128 77.233 32.3657 73.3331 30.3378L68.8295 38.9985L64.326 47.6592C64.1852 47.586 64.0597 47.5036 63.9534 47.4204C63.848 47.3378 63.7768 47.2663 63.7364 47.2214C63.6574 47.1335 63.7246 47.1793 63.868 47.4806L72.6815 43.2837ZM68.8295 38.9985L73.405 30.3755C70.2863 28.7207 66.9243 27.9849 63.5332 27.9849V37.7466V47.5083C64.0582 47.5083 64.2271 47.6071 64.2541 47.6214L68.8295 38.9985ZM63.5332 37.7466V27.9849C58.4286 27.9849 53.4698 29.2246 49.1146 32.1282L54.5294 40.2503L59.9442 48.3725C60.5963 47.9377 61.6402 47.5083 63.5332 47.5083V37.7466ZM54.5294 40.2503L49.1146 32.1282C45.2694 34.6916 42.2047 38.0736 39.9028 42.079L48.3663 46.943L56.8298 51.8071C57.7378 50.2272 58.7818 49.1474 59.9441 48.3725L54.5294 40.2503ZM48.3663 46.943L39.8609 42.1526C37.7622 45.8788 36.2809 49.9294 35.3559 54.2325L44.8996 56.2839L54.4433 58.3353C54.9949 55.7692 55.8246 53.5925 56.8717 51.7334L48.3663 46.943ZM44.8996 56.2839L35.3559 54.2325C34.4707 58.3508 34.0305 62.5376 34.0305 66.7803H43.7922H53.5538C53.5538 63.8971 53.852 61.0862 54.4433 58.3353L44.8996 56.2839ZM43.7922 66.7803H34.0305C34.0305 72.7892 35.0121 79.9327 39.816 84.8892L46.8255 78.0953L53.8351 71.3014C54.3102 71.7917 54.1968 71.9855 53.9792 71.174C53.7627 70.3665 53.5538 68.9656 53.5538 66.7803H43.7922ZM46.8255 78.0953L39.8689 84.9433C43.7758 88.9122 48.7917 90.9385 54.2886 90.9385V81.1768V71.4152C54.1178 71.4152 54.0168 71.4005 53.972 71.392C53.9291 71.3839 53.921 71.3785 53.9335 71.3837C53.9464 71.389 53.9498 71.3926 53.9366 71.3836C53.9221 71.3737 53.8693 71.3358 53.7822 71.2473L46.8255 78.0953Z" fill="black" mask="url(#path-2-outside-1_4084_2)"/>
<rect x="1" y="54" width="59" height="59" rx="29.5" fill="#004BB4"/>
<path d="M24.8684 64.5756C25.2054 63.9092 26.0194 63.642 26.6858 63.9789C27.352 64.3159 27.6193 65.13 27.2825 65.7963L19.2512 81.6781C20.2342 81.3466 21.2893 81.1654 22.3879 81.1654L22.7629 81.1742L28.2356 73.6283C28.6739 73.0238 29.5188 72.8892 30.1233 73.3275C30.7276 73.7658 30.863 74.6107 30.425 75.2152L25.6956 81.7367C26.5915 82.0577 27.4237 82.506 28.1711 83.058L35.5032 75.7318C36.0314 75.2042 36.8875 75.2048 37.4153 75.7328C37.9429 76.2609 37.9432 77.1171 37.4153 77.6449L30.0969 84.9564C30.6166 85.6406 31.0417 86.396 31.3557 87.2054L38.1448 82.4789C38.7575 82.0523 39.5999 82.2031 40.0266 82.8158C40.4532 83.4286 40.3024 84.2709 39.6897 84.6976L31.9631 90.0765C31.9698 90.2192 31.9749 90.3629 31.9749 90.5072L31.9622 90.9877C31.9208 91.7824 31.7759 92.5505 31.5432 93.2806L47.5032 85.6361C48.1766 85.3136 48.9843 85.5984 49.3069 86.2719C49.6293 86.9452 49.3444 87.753 48.6711 88.0756L28.3889 97.7894C26.7461 99.0765 24.6601 99.8489 22.3879 99.849L21.8938 99.8363C16.9917 99.594 13.0614 95.7641 12.8127 90.9877L12.8 90.5072C12.8 88.681 13.3391 86.9777 14.2688 85.5385L24.8684 64.5756ZM22.3879 84.3617C18.7792 84.3617 15.9963 87.1907 15.9963 90.5072C15.9966 93.8235 18.7793 96.6527 22.3879 96.6527C25.9963 96.6525 28.7793 93.8234 28.7795 90.5072C28.7795 87.1908 25.9965 84.3619 22.3879 84.3617Z" fill="#FFFFFE"/>
</svg>
